<svg width="24" height="30" viewBox="0 0 30 30" fill="none" xmlns="http://www.w3.org/2000/svg">
<path d="M25.9494 14.6109C25.9494 15.2125 26.1792 19.5388 25.6593 19.9642C25.1394 20.3897 23.9125 16.8794 23.1773 16.8794H6.54432V16.8794C3.48228 16.8794 1 14.3971 1 11.335V3.26848C1 2.66684 1.29207 2.08984 1.81195 1.66442C2.33183 1.239 3.03694 1 3.77216 1H23.1773C23.9125 1 24.6176 1.239 25.1375 1.66442C25.6574 2.08984 25.9494 2.66684 25.9494 3.26848V14.6109Z" stroke="black" stroke-linecap="round" stroke-linejoin="round"/>
<g filter="url(#filter0_d_1_8)">
<line x1="9" y1="4.35294" x2="9" y2="13.2941" stroke="black"/>
</g>
<g filter="url(#filter1_d_1_8)">
<line x1="17.75" y1="4.35294" x2="17.75" y2="13.2941" stroke="black"/>
</g>
<defs>
<filter id="filter0_d_1_8" x="4.5" y="4.35294" width="9" height="16.9412" filterUnits="userSpaceOnUse" color-interpolation-filters="sRGB">
<feFlood flood-opacity="0" result="BackgroundImageFix"/>
<feColorMatrix in="SourceAlpha" type="matrix" values="0 0 0 0 0 0 0 0 0 0 0 0 0 0 0 0 0 0 127 0" result="hardAlpha"/>
<feOffset dy="4"/>
<feGaussianBlur stdDeviation="2"/>
<feComposite in2="hardAlpha" operator="out"/>
<feColorMatrix type="matrix" values="0 0 0 0 0 0 0 0 0 0 0 0 0 0 0 0 0 0 0.25 0"/>
<feBlend mode="normal" in2="BackgroundImageFix" result="effect1_dropShadow_1_8"/>
<feBlend mode="normal" in="SourceGraphic" in2="effect1_dropShadow_1_8" result="shape"/>
</filter>
<filter id="filter1_d_1_8" x="13.25" y="4.35294" width="9" height="16.9412" filterUnits="userSpaceOnUse" color-interpolation-filters="sRGB">
<feFlood flood-opacity="0" result="BackgroundImageFix"/>
<feColorMatrix in="SourceAlpha" type="matrix" values="0 0 0 0 0 0 0 0 0 0 0 0 0 0 0 0 0 0 127 0" result="hardAlpha"/>
<feOffset dy="4"/>
<feGaussianBlur stdDeviation="2"/>
<feComposite in2="hardAlpha" operator="out"/>
<feColorMatrix type="matrix" values="0 0 0 0 0 0 0 0 0 0 0 0 0 0 0 0 0 0 0.25 0"/>
<feBlend mode="normal" in2="BackgroundImageFix" result="effect1_dropShadow_1_8"/>
<feBlend mode="normal" in="SourceGraphic" in2="effect1_dropShadow_1_8" result="shape"/>
</filter>
</defs>
</svg>
